<?xml version="1.0" standalone="no"?>
<!DOCTYPE svg PUBLIC "-//W3C//DTD SVG 1.1//EN" "http://www.w3.org/Graphics/SVG/1.1/DTD/svg11.dtd" >
<svg xmlns="http://www.w3.org/2000/svg">
<metadata></metadata>
<defs>
<font id="a_campusnrregular" horiz-adv-x="884" >
<font-face units-per-em="2048" ascent="1638" descent="-410" />
<missing-glyph horiz-adv-x="512" />
<glyph horiz-adv-x="2048" />
<glyph horiz-adv-x="2048" />
<glyph unicode="&#xd;" horiz-adv-x="512" />
<glyph unicode=" "  horiz-adv-x="512" />
<glyph unicode="&#x09;" horiz-adv-x="512" />
<glyph unicode="&#xa0;" horiz-adv-x="512" />
<glyph unicode="!" horiz-adv-x="421" d="M63 1475h295l-71 -1035h-152zM119 0v238h186v-238h-186z" />
<glyph unicode="&#x22;" horiz-adv-x="509" d="M14 1475h189v-396h-92zM307 1079v396h189l-99 -396h-90z" />
<glyph unicode="#" horiz-adv-x="1230" d="M53 401v134h219l37 405h-256v133h269l38 402h136l-41 -402h383l36 402h136l-39 -402h205v-133h-220l-36 -405h256v-134h-269l-37 -401h-135l39 401h-383l-35 -401h-135l37 401h-205zM406 535h380l37 405h-381z" />
<glyph unicode="$" horiz-adv-x="845" d="M53 231v199h197v-119l59 -73h228l57 73v248l-57 74h-295l-189 227v381l189 234h106v165h148v-165h108l187 -234v-197h-197v119l-57 74h-228l-59 -74v-229l59 -74h285l197 -227v-400l-183 -233h-112v-166h-148v166h-98z" />
<glyph unicode="%" horiz-adv-x="1329" d="M59 934v356l148 185h186l148 -185v-356l-148 -184h-186zM90 0l862 1475h283l-862 -1475h-283zM242 952h116v320h-116v-320zM788 184v357l148 184h186l148 -184v-357l-148 -184h-186zM971 203h116v319h-116v-319z" />
<glyph unicode="&#x26;" horiz-adv-x="892" d="M84 233v379l109 136l-109 135v360l180 232h314v-238h-234l-59 -74v-229l59 -74h234v109h180v-109h78v-227h-78v-633h-488zM285 311l59 -73h234v395h-234l-59 -74v-248z" />
<glyph unicode="'" horiz-adv-x="247" d="M45 1079v396h188l-98 -396h-90z" />
<glyph unicode="(" horiz-adv-x="612" d="M102 238v999l330 412l121 -174l-248 -312v-852l248 -311l-121 -174z" />
<glyph unicode=")" horiz-adv-x="612" d="M59 0l248 311v852l-248 312l121 174l330 -412v-999l-330 -412z" />
<glyph unicode="*" horiz-adv-x="501" d="M45 1118l119 82l-119 82l49 111l111 -88v170h88v-166l115 84l49 -111l-113 -82l113 -82l-49 -110l-115 82v-170h-88v172l-111 -82z" />
<glyph unicode="+" horiz-adv-x="944" d="M102 645v184h295v369h148v-369h295v-184h-295v-369h-148v369h-295z" />
<glyph unicode="," horiz-adv-x="307" d="M59 -158v396h207l-114 -396h-93z" />
<glyph unicode="-" horiz-adv-x="479" d="M74 608v252h332v-252h-332z" />
<glyph unicode="." horiz-adv-x="307" d="M59 0v238h191v-238h-191z" />
<glyph unicode="/" horiz-adv-x="1079" d="M-39 -256l1002 1987h155l-999 -1987h-158z" />
<glyph unicode="0" d="M74 233v1008l202 234h330l203 -234v-1008l-203 -233h-330zM276 311l60 -73h211l59 73v852l-59 74h-211l-60 -74v-852z" />
<glyph unicode="1" d="M182 0v238h174v999h-118v145l73 93h246v-1237h160v-238h-535z" />
<glyph unicode="2" d="M49 0v238l574 716v209l-60 74h-254l-59 -74v-119h-201v193l201 238h373l200 -238v-356l-514 -643h314v192h200v-430h-774z" />
<glyph unicode="3" d="M41 238v192h201v-119l59 -73h254l59 73v273l-59 73h-121v203h121l59 74v229l-59 74h-254l-59 -74v-119h-201v193l201 238h372l201 -238v-377l-88 -98l88 -105v-419l-201 -238h-372z" />
<glyph unicode="4" d="M14 428v205l432 842h248v-842h148v-205h-148v-190h94v-238h-409v238h115v190h-480zM238 633h256v530z" />
<glyph unicode="5" d="M74 233v197h202v-119l60 -73h211l59 73v322l-59 74h-473v768h676v-238h-474v-303h330l203 -227v-474l-203 -233h-330z" />
<glyph unicode="6" d="M78 233v1008l205 234h327l205 -234v-197h-205v119l-57 74h-213l-57 -74v-303h327l205 -227v-400l-205 -233h-327zM283 311l57 -73h213l57 73v248l-57 74h-270v-322z" />
<glyph unicode="7" d="M74 1044v431h751v-238l-346 -1237h-215l350 1237h-350v-193h-190z" />
<glyph unicode="8" d="M74 233v400l102 115l-102 112v381l202 234h330l203 -234v-381l-100 -112l100 -115v-400l-203 -233h-330zM276 311l60 -73h211l59 73v248l-59 74h-211l-60 -74v-248zM276 934l60 -74h211l59 74v229l-59 74h-211l-60 -74v-229z" />
<glyph unicode="9" d="M70 233v197h204v-119l58 -73h213l57 73v303h-328l-204 228v399l204 234h328l205 -234v-1008l-205 -233h-328zM274 915l58 -73h270v321l-57 74h-213l-58 -74v-248z" />
<glyph unicode=":" horiz-adv-x="307" d="M59 0v238h191v-238h-191zM59 922v237h191v-237h-191z" />
<glyph unicode=";" horiz-adv-x="307" d="M59 -158v396h207l-114 -396h-93zM59 922v237h191v-237h-191z" />
<glyph unicode="&#x3c;" horiz-adv-x="827" d="M74 612v252l680 418v-219l-518 -326l518 -325v-224z" />
<glyph unicode="=" horiz-adv-x="940" d="M102 430v203h736v-203h-736zM102 842v202h736v-202h-736z" />
<glyph unicode="&#x3e;" horiz-adv-x="827" d="M72 188v224l518 325l-518 326v219l680 -418v-252z" />
<glyph unicode="?" horiz-adv-x="757" d="M61 1120v142l170 213h306l168 -213v-431l-168 -213h-131v-106h-164v211l106 133h191v381h-314v-117h-164zM242 0v238h164v-238h-164z" />
<glyph unicode="@" horiz-adv-x="1314" d="M59 176v969l283 354h682l233 -293v-809l-178 -221h-211l-69 90l-74 -90h-205l-178 221v527l178 221h205l74 -88l69 88h107v-748h72l69 86v662l-141 176h-574l-200 -250v-821l200 -250h574v-176h-633zM520 487l70 -90h135l74 90v349l-74 88h-135l-70 -88v-349z" />
<glyph unicode="A" horiz-adv-x="1013" d="M-4 0v238h74l344 1237h186l346 -1237h74v-238h-367v238h113l-66 231h-387l-65 -231h112v-238h-364zM371 672h272l-135 504h-4z" />
<glyph unicode="B" horiz-adv-x="929" d="M35 0v238h100v999h-100v238h639l200 -238v-344l-120 -129l120 -141v-390l-200 -233h-639zM332 238h282l60 73v273l-60 73h-282v-419zM332 860h282l60 74v229l-60 74h-282v-377z" />
<glyph unicode="C" horiz-adv-x="843" d="M53 238v999l203 238h346l203 -238v-193h-203v119l-57 74h-230l-59 -74v-852l59 -73h230l57 73v119h203v-192l-203 -238h-346z" />
<glyph unicode="D" horiz-adv-x="929" d="M35 0v238h100v999h-100v238h637l202 -238v-999l-202 -238h-637zM338 238h274l60 73v852l-60 74h-274v-999z" />
<glyph unicode="E" horiz-adv-x="905" d="M35 0v238h100v999h-100v238h813v-431h-193v193h-323v-377h282v-203h-282v-419h323v192h193v-430h-813z" />
<glyph unicode="F" horiz-adv-x="847" d="M35 0v238h100v999h-100v238h780v-431h-192v193h-285v-377h229v-203h-229v-419h123v-238h-426z" />
<glyph unicode="G" horiz-adv-x="856" d="M53 238v999l203 238h348l193 -238v-193h-193v119l-59 74h-230l-59 -74v-852l59 -73h289v419h-174v203h367v-860h-541z" />
<glyph unicode="H" horiz-adv-x="1030" d="M35 0v238h100v999h-100v238h416v-238h-113v-377h354v377h-112v238h415v-238h-100v-999h100v-238h-415v238h112v419h-354v-419h113v-238h-416z" />
<glyph unicode="I" horiz-adv-x="473" d="M35 0v238h100v999h-100v238h403v-238h-100v-999h100v-238h-403z" />
<glyph unicode="J" horiz-adv-x="507" d="M-20 0v238h135l59 73v908h-104v256h403v-256h-98v-986l-185 -233h-210z" />
<glyph unicode="K" horiz-adv-x="1030" d="M35 0v238h100v999h-100v238h395v-238h-92v-410l371 410h-84v238h393v-238h-86l-314 -346l326 -653h100v-238h-419v238h102l-248 499l-141 -153v-346h92v-238h-395z" />
<glyph unicode="L" horiz-adv-x="823" d="M35 0v238h100v999h-100v238h430v-238h-127v-999h280v192h191v-430h-774z" />
<glyph unicode="M" horiz-adv-x="1249" d="M39 0v256h94v981h-94v238h303l283 -627l280 627h303v-238h-92v-981h92v-256h-383v256h99v846l-262 -580h-76l-262 580v-846h98v-256h-383z" />
<glyph unicode="N" horiz-adv-x="1073" d="M39 0v238h94v999h-94v238h285l430 -983v745h-99v238h383v-238h-92v-1237h-192l-430 983v-745h98v-238h-383z" />
<glyph unicode="O" horiz-adv-x="927" d="M53 238v999l203 238h416l200 -238v-999l-200 -238h-416zM256 311l59 -73h297l60 73v852l-60 74h-297l-59 -74v-852z" />
<glyph unicode="P" horiz-adv-x="847" d="M35 0v238h100v999h-100v238h596l200 -238v-377l-194 -227h-305v-395h123v-238h-420zM332 860h235l64 74v229l-64 74h-235v-377z" />
<glyph unicode="Q" horiz-adv-x="931" d="M53 238v999l203 238h416l200 -238v-999l-32 -41l106 -136l-127 -161l-112 141l-35 -41h-416zM256 311l59 -73h250l107 131v794l-60 74h-297l-59 -74v-852z" />
<glyph unicode="R" horiz-adv-x="948" d="M35 0v238h100v999h-100v238h641l201 -238v-383l-191 -209l188 -407h74v-238h-383v238h97l-173 389h-157v-389h104v-238h-401zM332 854h284l60 74v235l-60 74h-284v-383z" />
<glyph unicode="S" horiz-adv-x="845" d="M53 231v199h197v-119l59 -73h228l57 73v248l-57 74h-295l-189 227v381l189 234h362l187 -234v-197h-197v119l-57 74h-228l-59 -74v-229l59 -74h285l197 -227v-400l-183 -233h-358z" />
<glyph unicode="T" horiz-adv-x="995" d="M14 1044v431h967v-431h-182v193h-203v-999h104v-238h-403v238h102v999h-202v-193h-183z" />
<glyph unicode="U" horiz-adv-x="987" d="M29 1237v238h399v-238h-104v-926l57 -73h223l60 73v926h-103v238h397v-238h-94v-1004l-200 -233h-340l-201 233v1004h-94z" />
<glyph unicode="V" horiz-adv-x="1003" d="M-10 1237v238h366v-238h-114l260 -920l260 920h-113v238h365v-238h-74l-346 -1237h-186l-345 1237h-73z" />
<glyph unicode="W" horiz-adv-x="1421" d="M0 1237v238h373v-238h-105l162 -850l209 1088h143l209 -1088l162 850h-102v238h370v-238h-71l-246 -1237h-215l-178 854l-179 -854h-215l-245 1237h-72z" />
<glyph unicode="X" horiz-adv-x="1087" d="M20 0v238h91l319 512l-305 487h-88v238h387v-238h-88l201 -317l198 317h-88v238h389v-238h-90l-303 -487l320 -512h88v-238h-389v238h88l-213 342l-215 -342h88v-238h-390z" />
<glyph unicode="Y" horiz-adv-x="999" d="M16 1237v238h385v-238h-104l203 -383l202 383h-104v238h385v-238h-76l-309 -561v-438h115v-238h-414v238h102v438l-309 561h-76z" />
<glyph unicode="Z" horiz-adv-x="923" d="M35 0v238l608 999h-418v-193h-190v431h854v-238l-608 -999h417v192h191v-430h-854z" />
<glyph unicode="[" horiz-adv-x="548" d="M102 -238v1950h387v-237h-184v-1475h184v-238h-387z" />
<glyph unicode="\" horiz-adv-x="1079" d="M-39 1731h156l1001 -1987h-155z" />
<glyph unicode="]" horiz-adv-x="548" d="M59 0h185v1475h-185v237h387v-1950h-387v238z" />
<glyph unicode="^" horiz-adv-x="763" d="M59 1038l209 437h228l209 -437h-177l-147 236l-145 -236h-177z" />
<glyph unicode="_" horiz-adv-x="839" d="M-14 -195h868v-202h-868v202z" />
<glyph unicode="`" horiz-adv-x="182" d="M-59 1745h170l36 -270h-47z" />
<glyph unicode="a" horiz-adv-x="1013" d="M-4 0v238h74l344 1237h186l346 -1237h74v-238h-367v238h113l-66 231h-387l-65 -231h112v-238h-364zM371 672h272l-135 504h-4z" />
<glyph unicode="b" horiz-adv-x="929" d="M35 0v238h100v999h-100v238h639l200 -238v-344l-120 -129l120 -141v-390l-200 -233h-639zM332 238h282l60 73v273l-60 73h-282v-419zM332 860h282l60 74v229l-60 74h-282v-377z" />
<glyph unicode="c" horiz-adv-x="843" d="M53 238v999l203 238h346l203 -238v-193h-203v119l-57 74h-230l-59 -74v-852l59 -73h230l57 73v119h203v-192l-203 -238h-346z" />
<glyph unicode="d" horiz-adv-x="929" d="M35 0v238h100v999h-100v238h637l202 -238v-999l-202 -238h-637zM338 238h274l60 73v852l-60 74h-274v-999z" />
<glyph unicode="e" horiz-adv-x="905" d="M35 0v238h100v999h-100v238h813v-431h-193v193h-323v-377h282v-203h-282v-419h323v192h193v-430h-813z" />
<glyph unicode="f" horiz-adv-x="847" d="M35 0v238h100v999h-100v238h780v-431h-192v193h-285v-377h229v-203h-229v-419h123v-238h-426z" />
<glyph unicode="g" horiz-adv-x="856" d="M53 238v999l203 238h348l193 -238v-193h-193v119l-59 74h-230l-59 -74v-852l59 -73h289v419h-174v203h367v-860h-541z" />
<glyph unicode="h" horiz-adv-x="1030" d="M35 0v238h100v999h-100v238h416v-238h-113v-377h354v377h-112v238h415v-238h-100v-999h100v-238h-415v238h112v419h-354v-419h113v-238h-416z" />
<glyph unicode="i" horiz-adv-x="473" d="M35 0v238h100v999h-100v238h403v-238h-100v-999h100v-238h-403z" />
<glyph unicode="j" horiz-adv-x="507" d="M-20 0v238h135l59 73v908h-104v256h403v-256h-98v-986l-185 -233h-210z" />
<glyph unicode="k" horiz-adv-x="1030" d="M35 0v238h100v999h-100v238h395v-238h-92v-410l371 410h-84v238h393v-238h-86l-314 -346l326 -653h100v-238h-419v238h102l-248 499l-141 -153v-346h92v-238h-395z" />
<glyph unicode="l" horiz-adv-x="823" d="M35 0v238h100v999h-100v238h430v-238h-127v-999h280v192h191v-430h-774z" />
<glyph unicode="m" horiz-adv-x="1249" d="M39 0v256h94v981h-94v238h303l283 -627l280 627h303v-238h-92v-981h92v-256h-383v256h99v846l-262 -580h-76l-262 580v-846h98v-256h-383z" />
<glyph unicode="n" horiz-adv-x="1073" d="M39 0v238h94v999h-94v238h285l430 -983v745h-99v238h383v-238h-92v-1237h-192l-430 983v-745h98v-238h-383z" />
<glyph unicode="o" horiz-adv-x="927" d="M53 238v999l203 238h416l200 -238v-999l-200 -238h-416zM256 311l59 -73h297l60 73v852l-60 74h-297l-59 -74v-852z" />
<glyph unicode="p" horiz-adv-x="847" d="M35 0v238h100v999h-100v238h596l200 -238v-377l-194 -227h-305v-395h123v-238h-420zM332 860h235l64 74v229l-64 74h-235v-377z" />
<glyph unicode="q" horiz-adv-x="931" d="M53 238v999l203 238h416l200 -238v-999l-32 -41l106 -136l-127 -161l-112 141l-35 -41h-416zM256 311l59 -73h250l107 131v794l-60 74h-297l-59 -74v-852z" />
<glyph unicode="r" horiz-adv-x="948" d="M35 0v238h100v999h-100v238h641l201 -238v-383l-191 -209l188 -407h74v-238h-383v238h97l-173 389h-157v-389h104v-238h-401zM332 854h284l60 74v235l-60 74h-284v-383z" />
<glyph unicode="s" horiz-adv-x="845" d="M53 231v199h197v-119l59 -73h228l57 73v248l-57 74h-295l-189 227v381l189 234h362l187 -234v-197h-197v119l-57 74h-228l-59 -74v-229l59 -74h285l197 -227v-400l-183 -233h-358z" />
<glyph unicode="t" horiz-adv-x="995" d="M14 1044v431h967v-431h-182v193h-203v-999h104v-238h-403v238h102v999h-202v-193h-183z" />
<glyph unicode="u" horiz-adv-x="987" d="M29 1237v238h399v-238h-104v-926l57 -73h223l60 73v926h-103v238h397v-238h-94v-1004l-200 -233h-340l-201 233v1004h-94z" />
<glyph unicode="v" horiz-adv-x="1003" d="M-10 1237v238h366v-238h-114l260 -920l260 920h-113v238h365v-238h-74l-346 -1237h-186l-345 1237h-73z" />
<glyph unicode="w" horiz-adv-x="1421" d="M0 1237v238h373v-238h-105l162 -850l209 1088h143l209 -1088l162 850h-102v238h370v-238h-71l-246 -1237h-215l-178 854l-179 -854h-215l-245 1237h-72z" />
<glyph unicode="x" horiz-adv-x="1087" d="M20 0v238h91l319 512l-305 487h-88v238h387v-238h-88l201 -317l198 317h-88v238h389v-238h-90l-303 -487l320 -512h88v-238h-389v238h88l-213 342l-215 -342h88v-238h-390z" />
<glyph unicode="y" horiz-adv-x="999" d="M16 1237v238h385v-238h-104l203 -383l202 383h-104v238h385v-238h-76l-309 -561v-438h115v-238h-414v238h102v438l-309 561h-76z" />
<glyph unicode="z" horiz-adv-x="923" d="M35 0v238l608 999h-418v-193h-190v431h854v-238l-608 -999h417v192h191v-430h-854z" />
<glyph unicode="{" horiz-adv-x="663" d="M59 737l111 140v604l186 231h248v-237h-174l-57 -74v-524l-113 -140l113 -139v-524l57 -74h174v-238h-248l-186 232v604z" />
<glyph unicode="|" horiz-adv-x="299" d="M68 0v1475h163v-1475h-163z" />
<glyph unicode="}" horiz-adv-x="663" d="M59 0h174l58 74v524l112 139l-112 140v524l-58 74h-174v237h248l187 -231v-604l110 -140l-110 -139v-604l-187 -232h-248v238z" />
<glyph unicode="~" horiz-adv-x="800" d="M74 555v233l108 134h201l104 -134h68v134h172v-242l-106 -125h-201l-105 133h-69v-133h-172z" />
<glyph unicode="&#xa4;" horiz-adv-x="985" d="M59 1153l97 123l116 -146l60 78h319l62 -80l112 146l101 -125l-113 -143l59 -74v-393l-63 -76l117 -144l-101 -122l-114 141l-60 -74h-313l-64 80l-114 -141l-99 123l115 141l-63 78v387l59 78zM256 614l139 -176h199l139 176v246l-139 174h-203l-135 -174v-246z" />
<glyph unicode="&#xa6;" horiz-adv-x="299" d="M68 0v582h163v-582h-163zM68 893v582h163v-582h-163z" />
<glyph unicode="&#xa7;" horiz-adv-x="716" d="M72 145v172h180v-100l31 -39h149l31 39v150l-31 39h-207l-153 174v311l61 78l-61 73v293l143 189h287l141 -189v-172h-180v101l-31 39h-149l-31 -39v-150l31 -39h206l154 -174v-311l-59 -78l59 -74v-293l-141 -188h-287zM252 664l31 -39h149l31 39v153l-31 39h-149 l-31 -39v-153z" />
<glyph unicode="&#xa9;" horiz-adv-x="1241" d="M61 487v578l328 410h463l328 -410v-578l-328 -409h-463zM152 532l274 -344h389l277 344v488l-277 344h-389l-274 -344v-488zM424 532v496l98 115h199l96 -115v-102h-102v69l-31 37h-123l-33 -37v-434l33 -43h119l35 43v86h102v-115l-104 -122h-191z" />
<glyph unicode="&#xab;" horiz-adv-x="831" d="M59 737l164 375h191l-109 -375l109 -403h-191zM416 737l164 375h192l-110 -375l110 -403h-192z" />
<glyph unicode="&#xac;" horiz-adv-x="886" d="M119 508v41h698v-496h-51v455h-647z" />
<glyph unicode="&#xad;" horiz-adv-x="479" d="M74 608v252h332v-252h-332z" />
<glyph unicode="&#xae;" horiz-adv-x="1241" d="M61 487v578l328 410h463l328 -410v-578l-328 -409h-463zM152 532l274 -344h389l277 344v488l-277 344h-389l-274 -344v-488zM397 410v108h47v502h-47v123h334l88 -115v-197l-76 -88l82 -225h33v-108h-170v108h31l-74 203h-98v-203h37v-108h-187zM547 819h135l35 43v119 l-33 39h-137v-201z" />
<glyph unicode="&#xb0;" horiz-adv-x="540" d="M29 995v357l147 184h189l147 -184v-357l-147 -184h-189zM211 1014h119v319h-119v-319z" />
<glyph unicode="&#xb1;" horiz-adv-x="944" d="M102 25v184h738v-184h-738zM102 645v184h295v369h148v-369h295v-184h-295v-369h-148v369h-295z" />
<glyph unicode="&#xb6;" horiz-adv-x="899" d="M147 860v391l99 123h491v-123h-98v-1251h-98v1251h-99v-1251h-98v737h-98zM246 911l41 -51h57v391h-57l-41 -51v-289z" />
<glyph unicode="&#xb7;" horiz-adv-x="397" d="M102 618v238h191v-238h-191z" />
<glyph unicode="&#xbb;" horiz-adv-x="831" d="M59 334l109 403l-109 375h191l164 -375l-164 -403h-191zM416 334l110 403l-110 375h192l164 -375l-164 -403h-192z" />
<glyph unicode="&#x401;" horiz-adv-x="905" d="M35 0v238h100v999h-100v238h813v-431h-193v193h-323v-377h282v-203h-282v-419h323v192h193v-430h-813zM180 1647v202h182v-202h-182zM553 1647v202h182v-202h-182z" />
<glyph unicode="&#x410;" horiz-adv-x="1013" d="M-4 0v238h74l344 1237h186l346 -1237h74v-238h-367v238h113l-66 231h-387l-65 -231h112v-238h-364zM371 672h272l-135 504h-4z" />
<glyph unicode="&#x411;" horiz-adv-x="923" d="M35 0v238h100v999h-100v238h811v-431h-203v193h-311v-377h342l200 -237v-390l-200 -233h-639zM332 238h282l60 73v248l-60 74h-282v-395z" />
<glyph unicode="&#x412;" horiz-adv-x="929" d="M35 0v238h100v999h-100v238h639l200 -238v-344l-120 -129l120 -141v-390l-200 -233h-639zM332 238h282l60 73v273l-60 73h-282v-419zM332 860h282l60 74v229l-60 74h-282v-377z" />
<glyph unicode="&#x413;" horiz-adv-x="815" d="M35 0v238h100v999h-100v238h780v-431h-192v193h-285v-999h123v-238h-426z" />
<glyph unicode="&#x414;" horiz-adv-x="1052" d="M0 -227v465h109l59 73v926h-102v238h921v-238h-92v-999h133v-465h-190v227h-648v-227h-190zM369 238h323v999h-323v-999z" />
<glyph unicode="&#x415;" horiz-adv-x="905" d="M35 0v238h100v999h-100v238h813v-431h-193v193h-323v-377h282v-203h-282v-419h323v192h193v-430h-813z" />
<glyph unicode="&#x416;" horiz-adv-x="1533" d="M0 0v238h102l326 653l-315 346h-84v238h393v-238h-86l332 -367v367h-93v238h383v-238h-94v-367l334 367h-86v238h393v-238h-84l-315 -346l326 -653h102v-238h-422v238h105l-250 499l-103 -110v-389h94v-238h-383v238h93v389l-101 110l-250 -499h105v-238h-422z" />
<glyph unicode="&#x417;" horiz-adv-x="868" d="M39 238v192h203v-119l57 -73h254l59 73v273l-59 73h-254v203h254l59 74v229l-59 74h-254l-57 -74v-119h-203v193l203 238h370l203 -238v-377l-90 -98l90 -105v-419l-203 -238h-370z" />
<glyph unicode="&#x418;" horiz-adv-x="1069" d="M35 0v238h100v999h-100v238h401v-238h-98v-582l393 459v123h-98v238h401v-238h-102v-999h102v-238h-401v238h98v581l-393 -459v-122h98v-238h-401z" />
<glyph unicode="&#x419;" horiz-adv-x="1069" d="M35 0v238h100v999h-100v238h401v-238h-98v-582l393 459v123h-98v238h401v-238h-102v-999h102v-238h-401v238h98v581l-393 -459v-122h98v-238h-401zM289 1694v168h176v-109h137v109h178v-168l-104 -107h-283z" />
<glyph unicode="&#x41a;" horiz-adv-x="1030" d="M35 0v238h100v999h-100v238h395v-238h-92v-410l371 410h-84v238h393v-238h-86l-314 -346l326 -653h100v-238h-419v238h102l-248 499l-141 -153v-346h92v-238h-395z" />
<glyph unicode="&#x41b;" horiz-adv-x="1032" d="M0 0v238h109l59 73v926h-102v238h921v-238h-92v-999h102v-238h-417v238h112v999h-323v-1032l-164 -205h-205z" />
<glyph unicode="&#x41c;" horiz-adv-x="1249" d="M39 0v256h94v981h-94v238h303l283 -627l280 627h303v-238h-92v-981h92v-256h-383v256h99v846l-262 -580h-76l-262 580v-846h98v-256h-383z" />
<glyph unicode="&#x41d;" horiz-adv-x="1030" d="M35 0v238h100v999h-100v238h416v-238h-113v-377h354v377h-112v238h415v-238h-100v-999h100v-238h-415v238h112v419h-354v-419h113v-238h-416z" />
<glyph unicode="&#x41e;" horiz-adv-x="927" d="M53 238v999l203 238h416l200 -238v-999l-200 -238h-416zM256 311l59 -73h297l60 73v852l-60 74h-297l-59 -74v-852z" />
<glyph unicode="&#x41f;" horiz-adv-x="1030" d="M35 0v238h100v999h-100v238h960v-238h-100v-999h100v-238h-415v238h112v999h-354v-999h113v-238h-416z" />
<glyph unicode="&#x420;" horiz-adv-x="847" d="M35 0v238h100v999h-100v238h596l200 -238v-377l-194 -227h-305v-395h123v-238h-420zM332 860h235l64 74v229l-64 74h-235v-377z" />
<glyph unicode="&#x421;" horiz-adv-x="843" d="M53 238v999l203 238h346l203 -238v-193h-203v119l-57 74h-230l-59 -74v-852l59 -73h230l57 73v119h203v-192l-203 -238h-346z" />
<glyph unicode="&#x422;" horiz-adv-x="995" d="M14 1044v431h967v-431h-182v193h-203v-999h104v-238h-403v238h102v999h-202v-193h-183z" />
<glyph unicode="&#x423;" horiz-adv-x="999" d="M49 1237v238h389v-238h-104v-307l59 -70h273v377h-95v238h379v-238h-88v-1004l-186 -233h-352l-187 233v197h197v-119l59 -73h213l60 73v322h-342l-187 239v365h-88z" />
<glyph unicode="&#x424;" horiz-adv-x="1081" d="M14 584v327l183 203h245v123h-123v238h443v-238h-123v-123h246l182 -203v-327l-182 -203h-246v-143h123v-238h-443v238h123v143h-245zM207 657l63 -73h172v327h-172l-63 -73v-181zM639 584h172l63 73v181l-63 73h-172v-327z" />
<glyph unicode="&#x425;" horiz-adv-x="1087" d="M20 0v238h91l319 512l-305 487h-88v238h387v-238h-88l201 -317l198 317h-88v238h389v-238h-90l-303 -487l320 -512h88v-238h-389v238h88l-213 342l-215 -342h88v-238h-390z" />
<glyph unicode="&#x426;" horiz-adv-x="1021" d="M35 0v238h102v999h-98v238h403v-238h-102v-999h324v999h-103v238h408v-238h-105v-999h133v-465h-190v227h-772z" />
<glyph unicode="&#x427;" horiz-adv-x="921" d="M0 1237v238h381v-238h-96v-303l63 -74h236v377h-95v238h392v-238h-101v-999h101v-238h-420v238h123v395h-299l-191 227v377h-94z" />
<glyph unicode="&#x428;" horiz-adv-x="1404" d="M39 0v238h104v999h-104v238h407v-238h-102v-999h264v915h191v-915h262v999h-103v238h408v-238h-102v-999h102v-238h-1327z" />
<glyph unicode="&#x429;" horiz-adv-x="1415" d="M35 0v238h102v999h-98v238h403v-238h-102v-999h262v915h191v-915h264v999h-103v238h408v-238h-105v-999h134v-465h-191v227h-1165z" />
<glyph unicode="&#x42a;" horiz-adv-x="1085" d="M14 1044v431h654v-238h-140v-377h342l201 -237v-390l-201 -233h-655v238h117v999h-135v-193h-183zM528 238h283l59 73v248l-59 74h-283v-395z" />
<glyph unicode="&#x42b;" horiz-adv-x="1314" d="M39 0v238h102v999h-102v238h401v-238h-102v-377h295l201 -237v-390l-201 -233h-594zM338 238h235l60 73v248l-60 74h-235v-395zM872 1237v238h404v-238h-100v-999h100v-238h-379v238h76v999h-101z" />
<glyph unicode="&#x42c;" horiz-adv-x="888" d="M35 0v238h100v999h-100v238h426v-238h-129v-377h342l200 -237v-390l-200 -233h-639zM332 238h282l60 73v248l-60 74h-282v-395z" />
<glyph unicode="&#x42d;" horiz-adv-x="868" d="M39 238v192h203v-119l57 -73h254l59 73v346h-370v203h370v303l-59 74h-254l-57 -74v-119h-203v193l203 238h370l203 -238v-999l-203 -238h-370z" />
<glyph unicode="&#x42e;" horiz-adv-x="1347" d="M35 0v238h100v999h-100v238h403v-238h-100v-377h182v377l201 238h373l200 -238v-999l-200 -238h-373l-201 238v419h-182v-419h100v-238h-403zM721 311l59 -73h254l60 73v852l-60 74h-254l-59 -74v-852z" />
<glyph unicode="&#x42f;" horiz-adv-x="978" d="M0 0v238h102v389l113 110l-113 117v383l201 238h641v-238h-102v-999h102v-238h-401v238h102v389h-283l-59 -74v-383l-135 -170h-168zM303 928l59 -74h283v383h-283l-59 -74v-235z" />
<glyph unicode="&#x430;" horiz-adv-x="1013" d="M-4 0v238h74l344 1237h186l346 -1237h74v-238h-367v238h113l-66 231h-387l-65 -231h112v-238h-364zM371 672h272l-135 504h-4z" />
<glyph unicode="&#x431;" horiz-adv-x="923" d="M35 0v238h100v999h-100v238h811v-431h-203v193h-311v-377h342l200 -237v-390l-200 -233h-639zM332 238h282l60 73v248l-60 74h-282v-395z" />
<glyph unicode="&#x432;" horiz-adv-x="929" d="M35 0v238h100v999h-100v238h639l200 -238v-344l-120 -129l120 -141v-390l-200 -233h-639zM332 238h282l60 73v273l-60 73h-282v-419zM332 860h282l60 74v229l-60 74h-282v-377z" />
<glyph unicode="&#x433;" horiz-adv-x="815" d="M35 0v238h100v999h-100v238h780v-431h-192v193h-285v-999h123v-238h-426z" />
<glyph unicode="&#x434;" horiz-adv-x="1052" d="M0 -227v465h109l59 73v926h-102v238h921v-238h-92v-999h133v-465h-190v227h-648v-227h-190zM369 238h323v999h-323v-999z" />
<glyph unicode="&#x435;" horiz-adv-x="905" d="M35 0v238h100v999h-100v238h813v-431h-193v193h-323v-377h282v-203h-282v-419h323v192h193v-430h-813z" />
<glyph unicode="&#x436;" horiz-adv-x="1533" d="M0 0v238h102l326 653l-315 346h-84v238h393v-238h-86l332 -367v367h-93v238h383v-238h-94v-367l334 367h-86v238h393v-238h-84l-315 -346l326 -653h102v-238h-422v238h105l-250 499l-103 -110v-389h94v-238h-383v238h93v389l-101 110l-250 -499h105v-238h-422z" />
<glyph unicode="&#x437;" horiz-adv-x="868" d="M39 238v192h203v-119l57 -73h254l59 73v273l-59 73h-254v203h254l59 74v229l-59 74h-254l-57 -74v-119h-203v193l203 238h370l203 -238v-377l-90 -98l90 -105v-419l-203 -238h-370z" />
<glyph unicode="&#x438;" horiz-adv-x="1069" d="M35 0v238h100v999h-100v238h401v-238h-98v-582l393 459v123h-98v238h401v-238h-102v-999h102v-238h-401v238h98v581l-393 -459v-122h98v-238h-401z" />
<glyph unicode="&#x439;" horiz-adv-x="1069" d="M35 0v238h100v999h-100v238h401v-238h-98v-582l393 459v123h-98v238h401v-238h-102v-999h102v-238h-401v238h98v581l-393 -459v-122h98v-238h-401zM289 1694v168h176v-109h137v109h178v-168l-104 -107h-283z" />
<glyph unicode="&#x43a;" horiz-adv-x="1030" d="M35 0v238h100v999h-100v238h395v-238h-92v-410l371 410h-84v238h393v-238h-86l-314 -346l326 -653h100v-238h-419v238h102l-248 499l-141 -153v-346h92v-238h-395z" />
<glyph unicode="&#x43b;" horiz-adv-x="1032" d="M0 0v238h109l59 73v926h-102v238h921v-238h-92v-999h102v-238h-417v238h112v999h-323v-1032l-164 -205h-205z" />
<glyph unicode="&#x43c;" horiz-adv-x="1249" d="M39 0v256h94v981h-94v238h303l283 -627l280 627h303v-238h-92v-981h92v-256h-383v256h99v846l-262 -580h-76l-262 580v-846h98v-256h-383z" />
<glyph unicode="&#x43d;" horiz-adv-x="1030" d="M35 0v238h100v999h-100v238h416v-238h-113v-377h354v377h-112v238h415v-238h-100v-999h100v-238h-415v238h112v419h-354v-419h113v-238h-416z" />
<glyph unicode="&#x43e;" horiz-adv-x="927" d="M53 238v999l203 238h416l200 -238v-999l-200 -238h-416zM256 311l59 -73h297l60 73v852l-60 74h-297l-59 -74v-852z" />
<glyph unicode="&#x43f;" horiz-adv-x="1030" d="M35 0v238h100v999h-100v238h960v-238h-100v-999h100v-238h-415v238h112v999h-354v-999h113v-238h-416z" />
<glyph unicode="&#x440;" horiz-adv-x="847" d="M35 0v238h100v999h-100v238h596l200 -238v-377l-194 -227h-305v-395h123v-238h-420zM332 860h235l64 74v229l-64 74h-235v-377z" />
<glyph unicode="&#x441;" horiz-adv-x="843" d="M53 238v999l203 238h346l203 -238v-193h-203v119l-57 74h-230l-59 -74v-852l59 -73h230l57 73v119h203v-192l-203 -238h-346z" />
<glyph unicode="&#x442;" horiz-adv-x="995" d="M14 1044v431h967v-431h-182v193h-203v-999h104v-238h-403v238h102v999h-202v-193h-183z" />
<glyph unicode="&#x443;" horiz-adv-x="999" d="M49 1237v238h389v-238h-104v-307l59 -70h273v377h-95v238h379v-238h-88v-1004l-186 -233h-352l-187 233v197h197v-119l59 -73h213l60 73v322h-342l-187 239v365h-88z" />
<glyph unicode="&#x444;" horiz-adv-x="1081" d="M14 584v327l183 203h245v123h-123v238h443v-238h-123v-123h246l182 -203v-327l-182 -203h-246v-143h123v-238h-443v238h123v143h-245zM207 657l63 -73h172v327h-172l-63 -73v-181zM639 584h172l63 73v181l-63 73h-172v-327z" />
<glyph unicode="&#x445;" horiz-adv-x="1087" d="M20 0v238h91l319 512l-305 487h-88v238h387v-238h-88l201 -317l198 317h-88v238h389v-238h-90l-303 -487l320 -512h88v-238h-389v238h88l-213 342l-215 -342h88v-238h-390z" />
<glyph unicode="&#x446;" horiz-adv-x="1021" d="M35 0v238h102v999h-98v238h403v-238h-102v-999h324v999h-103v238h408v-238h-105v-999h133v-465h-190v227h-772z" />
<glyph unicode="&#x447;" horiz-adv-x="921" d="M0 1237v238h381v-238h-96v-303l63 -74h236v377h-95v238h392v-238h-101v-999h101v-238h-420v238h123v395h-299l-191 227v377h-94z" />
<glyph unicode="&#x448;" horiz-adv-x="1404" d="M39 0v238h104v999h-104v238h407v-238h-102v-999h264v915h191v-915h262v999h-103v238h408v-238h-102v-999h102v-238h-1327z" />
<glyph unicode="&#x449;" horiz-adv-x="1415" d="M35 0v238h102v999h-98v238h403v-238h-102v-999h262v915h191v-915h264v999h-103v238h408v-238h-105v-999h134v-465h-191v227h-1165z" />
<glyph unicode="&#x44a;" horiz-adv-x="1085" d="M14 1044v431h654v-238h-140v-377h342l201 -237v-390l-201 -233h-655v238h117v999h-135v-193h-183zM528 238h283l59 73v248l-59 74h-283v-395z" />
<glyph unicode="&#x44b;" horiz-adv-x="1314" d="M39 0v238h102v999h-102v238h401v-238h-102v-377h295l201 -237v-390l-201 -233h-594zM338 238h235l60 73v248l-60 74h-235v-395zM872 1237v238h404v-238h-100v-999h100v-238h-379v238h76v999h-101z" />
<glyph unicode="&#x44c;" horiz-adv-x="888" d="M35 0v238h100v999h-100v238h426v-238h-129v-377h342l200 -237v-390l-200 -233h-639zM332 238h282l60 73v248l-60 74h-282v-395z" />
<glyph unicode="&#x44d;" horiz-adv-x="868" d="M39 238v192h203v-119l57 -73h254l59 73v346h-370v203h370v303l-59 74h-254l-57 -74v-119h-203v193l203 238h370l203 -238v-999l-203 -238h-370z" />
<glyph unicode="&#x44e;" horiz-adv-x="1347" d="M35 0v238h100v999h-100v238h403v-238h-100v-377h182v377l201 238h373l200 -238v-999l-200 -238h-373l-201 238v419h-182v-419h100v-238h-403zM721 311l59 -73h254l60 73v852l-60 74h-254l-59 -74v-852z" />
<glyph unicode="&#x44f;" horiz-adv-x="978" d="M0 0v238h102v389l113 110l-113 117v383l201 238h641v-238h-102v-999h102v-238h-401v238h102v389h-283l-59 -74v-383l-135 -170h-168zM303 928l59 -74h283v383h-283l-59 -74v-235z" />
<glyph unicode="&#x451;" horiz-adv-x="905" d="M35 0v238h100v999h-100v238h813v-431h-193v193h-323v-377h282v-203h-282v-419h323v192h193v-430h-813zM180 1647v202h182v-202h-182zM553 1647v202h182v-202h-182z" />
<glyph unicode="&#x2000;" horiz-adv-x="931" />
<glyph unicode="&#x2001;" horiz-adv-x="1862" />
<glyph unicode="&#x2002;" horiz-adv-x="931" />
<glyph unicode="&#x2003;" horiz-adv-x="1862" />
<glyph unicode="&#x2004;" horiz-adv-x="620" />
<glyph unicode="&#x2005;" horiz-adv-x="465" />
<glyph unicode="&#x2006;" horiz-adv-x="310" />
<glyph unicode="&#x2007;" horiz-adv-x="310" />
<glyph unicode="&#x2008;" horiz-adv-x="232" />
<glyph unicode="&#x2009;" horiz-adv-x="372" />
<glyph unicode="&#x200a;" horiz-adv-x="103" />
<glyph unicode="&#x2010;" horiz-adv-x="479" d="M74 608v252h332v-252h-332z" />
<glyph unicode="&#x2011;" horiz-adv-x="479" d="M74 608v252h332v-252h-332z" />
<glyph unicode="&#x2012;" horiz-adv-x="479" d="M74 608v252h332v-252h-332z" />
<glyph unicode="&#x2013;" horiz-adv-x="839" d="M-20 614v246h878v-246h-878z" />
<glyph unicode="&#x2014;" horiz-adv-x="1677" d="M147 614v246h1383v-246h-1383z" />
<glyph unicode="&#x2018;" horiz-adv-x="323" d="M39 1079l115 396h92v-396h-207z" />
<glyph unicode="&#x2019;" horiz-adv-x="323" d="M78 1079v396h207l-115 -396h-92z" />
<glyph unicode="&#x201a;" horiz-adv-x="323" d="M78 -158v396h207l-115 -396h-92z" />
<glyph unicode="&#x201c;" horiz-adv-x="649" d="M59 1079l115 396h92v-396h-207zM344 1079l115 396h92v-396h-207z" />
<glyph unicode="&#x201d;" horiz-adv-x="649" d="M98 1079v396h207l-115 -396h-92zM383 1079v396h207l-115 -396h-92z" />
<glyph unicode="&#x201e;" horiz-adv-x="649" d="M98 -158v396h207l-115 -396h-92zM383 -158v396h207l-115 -396h-92z" />
<glyph unicode="&#x2020;" d="M137 856v238h213v419h182v-419h213v-238h-213v-971h-182v971h-213z" />
<glyph unicode="&#x2022;" horiz-adv-x="946" d="M236 578v319l110 137h256l109 -137v-319l-109 -138h-256z" />
<glyph unicode="&#x2026;" horiz-adv-x="1091" d="M59 0v238h191v-238h-191zM451 0v238h190v-238h-190zM842 0v238h190v-238h-190z" />
<glyph unicode="&#x202f;" horiz-adv-x="372" />
<glyph unicode="&#x2030;" horiz-adv-x="1908" d="M49 934v356l148 185h186l147 -185v-356l-147 -184h-186zM80 0l862 1475h283l-860 -1475h-285zM231 952h117v320h-117v-320zM778 184v357l148 184h186l148 -184v-357l-148 -184h-186zM961 203h116v319h-116v-319zM1378 184v357l148 184h186l148 -184v-357l-148 -184h-186z M1561 203h116v319h-116v-319z" />
<glyph unicode="&#x2039;" horiz-adv-x="651" d="M147 737l164 375h193l-111 -375l111 -403h-193z" />
<glyph unicode="&#x203a;" horiz-adv-x="651" d="M147 334l111 403l-111 375h193l164 -375l-164 -403h-193z" />
<glyph unicode="&#x205f;" horiz-adv-x="465" />
<glyph unicode="&#x2122;" horiz-adv-x="1495" d="M98 1278v197h520v-197h-98v92h-110v-532h57v-105h-217v105h55v532h-108v-92h-99zM725 733v105h49v532h-49v105h178l158 -306l164 306h172v-105h-49v-532h49v-105h-199v105h47v465l-158 -295h-55l-158 299v-469h52v-105h-201z" />
<glyph unicode="&#xe000;" horiz-adv-x="1474" d="M0 0v1475h1475v-1475h-1475z" />
</font>
</defs>
</svg>
